{
	"asset":{
		"generator":"Khronos glTF Blender I/O v4.0.43",
		"version":"2.0"
	},
	"extensionsUsed":[
		"KHR_materials_specular",
		"KHR_materials_ior"
	],
	"scene":0,
	"scenes":[
		{
			"name":"Scene",
			"nodes":[
				0
			]
		}
	],
	"nodes":[
		{
			"mesh":0,
			"name":"Blind.001"
		}
	],
	"materials":[
		{
			"doubleSided":true,
			"extensions":{
				"KHR_materials_specular":{
					"specularFactor":0
				},
				"KHR_materials_ior":{
					"ior":1.4500000476837158
				}
			},
			"name":"default",
			"pbrMetallicRoughness":{
				"metallicFactor":0
			}
		}
	],
	"meshes":[
		{
			"name":"W\u00fcrfel.5_13.001",
			"primitives":[
				{
					"attributes":{
						"POSITION":0,
						"NORMAL":1,
						"TEXCOORD_0":2
					},
					"indices":3,
					"material":0
				}
			]
		}
	],
	"accessors":[
		{
			"bufferView":0,
			"componentType":5126,
			"count":9216,
			"max":[
				0.4033699035644531,
				7.274689674377441,
				7.505348205566406
			],
			"min":[
				-2.1043014526367188,
				-12.72531509399414,
				-7.494656085968018
			],
			"type":"VEC3"
		},
		{
			"bufferView":1,
			"componentType":5126,
			"count":9216,
			"type":"VEC3"
		},
		{
			"bufferView":2,
			"componentType":5126,
			"count":9216,
			"type":"VEC2"
		},
		{
			"bufferView":3,
			"componentType":5123,
			"count":10896,
			"type":"SCALAR"
		}
	],
	"bufferViews":[
		{
			"buffer":0,
			"byteLength":110592,
			"byteOffset":0,
			"target":34962
		},
		{
			"buffer":0,
			"byteLength":110592,
			"byteOffset":110592,
			"target":34962
		},
		{
			"buffer":0,
			"byteLength":73728,
			"byteOffset":221184,
			"target":34962
		},
		{
			"buffer":0,
			"byteLength":21792,
			"byteOffset":294912,
			"target":34963
		}
	],
	"buffers":[
		{
			"byteLength":316704,
			"uri":"blind.bin"
		}
	]
}
