{
	"asset":{
		"generator":"Khronos glTF Blender I/O v4.0.43",
		"version":"2.0"
	},
	"extensionsUsed":[
		"KHR_materials_specular",
		"KHR_materials_ior"
	],
	"scene":0,
	"scenes":[
		{
			"name":"Scene",
			"nodes":[
				0
			]
		}
	],
	"nodes":[
		{
			"mesh":0,
			"name":"Lamp"
		}
	],
	"materials":[
		{
			"doubleSided":true,
			"extensions":{
				"KHR_materials_specular":{
					"specularFactor":0
				},
				"KHR_materials_ior":{
					"ior":1.4500000476837158
				}
			},
			"name":"default.001",
			"pbrMetallicRoughness":{
				"metallicFactor":0
			}
		}
	],
	"meshes":[
		{
			"name":"lamp_legup_mainswitch_Boole4_switch_mainspace",
			"primitives":[
				{
					"attributes":{
						"POSITION":0,
						"NORMAL":1,
						"TEXCOORD_0":2
					},
					"indices":3,
					"material":0
				}
			]
		}
	],
	"accessors":[
		{
			"bufferView":0,
			"componentType":5126,
			"count":20182,
			"max":[
				2.0876781940460205,
				5.046920299530029,
				3.490513801574707
			],
			"min":[
				-3.945981502532959,
				-6.826601505279541,
				-1.818591594696045
			],
			"type":"VEC3"
		},
		{
			"bufferView":1,
			"componentType":5126,
			"count":20182,
			"type":"VEC3"
		},
		{
			"bufferView":2,
			"componentType":5126,
			"count":20182,
			"type":"VEC2"
		},
		{
			"bufferView":3,
			"componentType":5123,
			"count":23163,
			"type":"SCALAR"
		}
	],
	"bufferViews":[
		{
			"buffer":0,
			"byteLength":242184,
			"byteOffset":0,
			"target":34962
		},
		{
			"buffer":0,
			"byteLength":242184,
			"byteOffset":242184,
			"target":34962
		},
		{
			"buffer":0,
			"byteLength":161456,
			"byteOffset":484368,
			"target":34962
		},
		{
			"buffer":0,
			"byteLength":46326,
			"byteOffset":645824,
			"target":34963
		}
	],
	"buffers":[
		{
			"byteLength":692152,
			"uri":"lamp.bin"
		}
	]
}
