{
	"asset":{
		"generator":"Khronos glTF Blender I/O v4.0.43",
		"version":"2.0"
	},
	"extensionsUsed":[
		"KHR_materials_specular",
		"KHR_materials_ior"
	],
	"scene":0,
	"scenes":[
		{
			"name":"Scene",
			"nodes":[
				0
			]
		}
	],
	"nodes":[
		{
			"mesh":0,
			"name":"Light.005"
		}
	],
	"materials":[
		{
			"doubleSided":true,
			"extensions":{
				"KHR_materials_specular":{
					"specularFactor":0
				},
				"KHR_materials_ior":{
					"ior":1.4500000476837158
				}
			},
			"name":"default.001",
			"pbrMetallicRoughness":{
				"metallicFactor":0
			}
		}
	],
	"meshes":[
		{
			"name":"Zylinder.003",
			"primitives":[
				{
					"attributes":{
						"POSITION":0,
						"NORMAL":1,
						"TEXCOORD_0":2
					},
					"indices":3,
					"material":0
				}
			]
		}
	],
	"accessors":[
		{
			"bufferView":0,
			"componentType":5126,
			"count":11151,
			"max":[
				1.7042231559753418,
				10.384334564208984,
				1.7042913436889648
			],
			"min":[
				-1.7042770385742188,
				-1.922354817390442,
				-1.7042083740234375
			],
			"type":"VEC3"
		},
		{
			"bufferView":1,
			"componentType":5126,
			"count":11151,
			"type":"VEC3"
		},
		{
			"bufferView":2,
			"componentType":5126,
			"count":11151,
			"type":"VEC2"
		},
		{
			"bufferView":3,
			"componentType":5123,
			"count":36240,
			"type":"SCALAR"
		}
	],
	"bufferViews":[
		{
			"buffer":0,
			"byteLength":133812,
			"byteOffset":0,
			"target":34962
		},
		{
			"buffer":0,
			"byteLength":133812,
			"byteOffset":133812,
			"target":34962
		},
		{
			"buffer":0,
			"byteLength":89208,
			"byteOffset":267624,
			"target":34962
		},
		{
			"buffer":0,
			"byteLength":72480,
			"byteOffset":356832,
			"target":34963
		}
	],
	"buffers":[
		{
			"byteLength":429312,
			"uri":"light_1.bin"
		}
	]
}
