{
	"asset":{
		"generator":"Khronos glTF Blender I/O v4.0.43",
		"version":"2.0"
	},
	"extensionsUsed":[
		"KHR_materials_specular",
		"KHR_materials_ior"
	],
	"scene":0,
	"scenes":[
		{
			"name":"Scene",
			"nodes":[
				0
			]
		}
	],
	"nodes":[
		{
			"mesh":0,
			"name":"Light.003"
		}
	],
	"materials":[
		{
			"doubleSided":true,
			"extensions":{
				"KHR_materials_specular":{
					"specularFactor":0
				},
				"KHR_materials_ior":{
					"ior":1.4500000476837158
				}
			},
			"name":"default.001",
			"pbrMetallicRoughness":{
				"metallicFactor":0
			}
		}
	],
	"meshes":[
		{
			"name":"Zylinder.002",
			"primitives":[
				{
					"attributes":{
						"POSITION":0,
						"NORMAL":1,
						"TEXCOORD_0":2
					},
					"indices":3,
					"material":0
				}
			]
		}
	],
	"accessors":[
		{
			"bufferView":0,
			"componentType":5126,
			"count":10961,
			"max":[
				1.9563055038452148,
				8.233988761901855,
				1.956405758857727
			],
			"min":[
				-1.956338882446289,
				-2.159456729888916,
				-1.9562389850616455
			],
			"type":"VEC3"
		},
		{
			"bufferView":1,
			"componentType":5126,
			"count":10961,
			"type":"VEC3"
		},
		{
			"bufferView":2,
			"componentType":5126,
			"count":10961,
			"type":"VEC2"
		},
		{
			"bufferView":3,
			"componentType":5123,
			"count":36240,
			"type":"SCALAR"
		}
	],
	"bufferViews":[
		{
			"buffer":0,
			"byteLength":131532,
			"byteOffset":0,
			"target":34962
		},
		{
			"buffer":0,
			"byteLength":131532,
			"byteOffset":131532,
			"target":34962
		},
		{
			"buffer":0,
			"byteLength":87688,
			"byteOffset":263064,
			"target":34962
		},
		{
			"buffer":0,
			"byteLength":72480,
			"byteOffset":350752,
			"target":34963
		}
	],
	"buffers":[
		{
			"byteLength":423232,
			"uri":"light.bin"
		}
	]
}
