{
	"asset":{
		"generator":"Khronos glTF Blender I/O v4.0.43",
		"version":"2.0"
	},
	"extensionsUsed":[
		"KHR_materials_specular",
		"KHR_materials_ior"
	],
	"scene":0,
	"scenes":[
		{
			"name":"Scene",
			"nodes":[
				0
			]
		}
	],
	"nodes":[
		{
			"mesh":0,
			"name":"Light.004"
		}
	],
	"materials":[
		{
			"doubleSided":true,
			"extensions":{
				"KHR_materials_specular":{
					"specularFactor":0
				},
				"KHR_materials_ior":{
					"ior":1.4500000476837158
				}
			},
			"name":"default.001",
			"pbrMetallicRoughness":{
				"metallicFactor":0
			}
		}
	],
	"meshes":[
		{
			"name":"Zylinder.007",
			"primitives":[
				{
					"attributes":{
						"POSITION":0,
						"NORMAL":1,
						"TEXCOORD_0":2
					},
					"indices":3,
					"material":0
				}
			]
		}
	],
	"accessors":[
		{
			"bufferView":0,
			"componentType":5126,
			"count":10741,
			"max":[
				1.637378454208374,
				11.80539321899414,
				1.637465476989746
			],
			"min":[
				-1.637505054473877,
				-1.8697248697280884,
				-1.6374180316925049
			],
			"type":"VEC3"
		},
		{
			"bufferView":1,
			"componentType":5126,
			"count":10741,
			"type":"VEC3"
		},
		{
			"bufferView":2,
			"componentType":5126,
			"count":10741,
			"type":"VEC2"
		},
		{
			"bufferView":3,
			"componentType":5123,
			"count":36240,
			"type":"SCALAR"
		}
	],
	"bufferViews":[
		{
			"buffer":0,
			"byteLength":128892,
			"byteOffset":0,
			"target":34962
		},
		{
			"buffer":0,
			"byteLength":128892,
			"byteOffset":128892,
			"target":34962
		},
		{
			"buffer":0,
			"byteLength":85928,
			"byteOffset":257784,
			"target":34962
		},
		{
			"buffer":0,
			"byteLength":72480,
			"byteOffset":343712,
			"target":34963
		}
	],
	"buffers":[
		{
			"byteLength":416192,
			"uri":"light_2.bin"
		}
	]
}
