{
	"asset":{
		"generator":"Khronos glTF Blender I/O v4.0.43",
		"version":"2.0"
	},
	"extensionsUsed":[
		"KHR_materials_specular",
		"KHR_materials_ior"
	],
	"scene":0,
	"scenes":[
		{
			"name":"Scene",
			"nodes":[
				0
			]
		}
	],
	"nodes":[
		{
			"mesh":0,
			"name":"Room.001"
		}
	],
	"materials":[
		{
			"doubleSided":true,
			"extensions":{
				"KHR_materials_specular":{
					"specularFactor":0
				},
				"KHR_materials_ior":{
					"ior":1.4500000476837158
				}
			},
			"name":"default.001",
			"pbrMetallicRoughness":{
				"metallicFactor":0
			}
		}
	],
	"meshes":[
		{
			"name":"W\u00fcrfel.001",
			"primitives":[
				{
					"attributes":{
						"POSITION":0,
						"NORMAL":1,
						"TEXCOORD_0":2
					},
					"indices":3,
					"material":0
				}
			]
		}
	],
	"accessors":[
		{
			"bufferView":0,
			"componentType":5126,
			"count":311,
			"max":[
				37.76342010498047,
				12.415109634399414,
				48.71543502807617
			],
			"min":[
				-18.904109954833984,
				-38.73040008544922,
				-38.787994384765625
			],
			"type":"VEC3"
		},
		{
			"bufferView":1,
			"componentType":5126,
			"count":311,
			"type":"VEC3"
		},
		{
			"bufferView":2,
			"componentType":5126,
			"count":311,
			"type":"VEC2"
		},
		{
			"bufferView":3,
			"componentType":5123,
			"count":582,
			"type":"SCALAR"
		}
	],
	"bufferViews":[
		{
			"buffer":0,
			"byteLength":3732,
			"byteOffset":0,
			"target":34962
		},
		{
			"buffer":0,
			"byteLength":3732,
			"byteOffset":3732,
			"target":34962
		},
		{
			"buffer":0,
			"byteLength":2488,
			"byteOffset":7464,
			"target":34962
		},
		{
			"buffer":0,
			"byteLength":1164,
			"byteOffset":9952,
			"target":34963
		}
	],
	"buffers":[
		{
			"byteLength":11116,
			"uri":"room_no_ceiling.bin"
		}
	]
}
