{
	"asset":{
		"generator":"Khronos glTF Blender I/O v4.0.43",
		"version":"2.0"
	},
	"extensionsUsed":[
		"KHR_materials_specular",
		"KHR_materials_ior"
	],
	"scene":0,
	"scenes":[
		{
			"name":"Scene",
			"nodes":[
				0
			]
		}
	],
	"nodes":[
		{
			"mesh":0,
			"name":"Shelf.001"
		}
	],
	"materials":[
		{
			"doubleSided":true,
			"extensions":{
				"KHR_materials_specular":{
					"specularFactor":0
				},
				"KHR_materials_ior":{
					"ior":1.4500000476837158
				}
			},
			"name":"default.001",
			"pbrMetallicRoughness":{
				"metallicFactor":0
			}
		}
	],
	"meshes":[
		{
			"name":"Zylinder.008",
			"primitives":[
				{
					"attributes":{
						"POSITION":0,
						"NORMAL":1,
						"TEXCOORD_0":2
					},
					"indices":3,
					"material":0
				}
			]
		}
	],
	"accessors":[
		{
			"bufferView":0,
			"componentType":5126,
			"count":806,
			"max":[
				7.123867988586426,
				1.935368537902832,
				1.1530876159667969
			],
			"min":[
				-7.140598297119141,
				-1.8004398345947266,
				-1.1878280639648438
			],
			"type":"VEC3"
		},
		{
			"bufferView":1,
			"componentType":5126,
			"count":806,
			"type":"VEC3"
		},
		{
			"bufferView":2,
			"componentType":5126,
			"count":806,
			"type":"VEC2"
		},
		{
			"bufferView":3,
			"componentType":5123,
			"count":1800,
			"type":"SCALAR"
		}
	],
	"bufferViews":[
		{
			"buffer":0,
			"byteLength":9672,
			"byteOffset":0,
			"target":34962
		},
		{
			"buffer":0,
			"byteLength":9672,
			"byteOffset":9672,
			"target":34962
		},
		{
			"buffer":0,
			"byteLength":6448,
			"byteOffset":19344,
			"target":34962
		},
		{
			"buffer":0,
			"byteLength":3600,
			"byteOffset":25792,
			"target":34963
		}
	],
	"buffers":[
		{
			"byteLength":29392,
			"uri":"shelf.bin"
		}
	]
}
