{
	"asset":{
		"generator":"Khronos glTF Blender I/O v4.0.43",
		"version":"2.0"
	},
	"extensionsUsed":[
		"KHR_materials_specular",
		"KHR_materials_ior"
	],
	"scene":0,
	"scenes":[
		{
			"name":"Scene",
			"nodes":[
				0
			]
		}
	],
	"nodes":[
		{
			"mesh":0,
			"name":"Sofa"
		}
	],
	"materials":[
		{
			"doubleSided":true,
			"extensions":{
				"KHR_materials_specular":{
					"specularFactor":0
				},
				"KHR_materials_ior":{
					"ior":1.4500000476837158
				}
			},
			"name":"default",
			"pbrMetallicRoughness":{
				"metallicFactor":0
			}
		}
	],
	"meshes":[
		{
			"name":"Sofa",
			"primitives":[
				{
					"attributes":{
						"POSITION":0,
						"NORMAL":1
					},
					"indices":2,
					"material":0
				}
			]
		}
	],
	"accessors":[
		{
			"bufferView":0,
			"componentType":5126,
			"count":47442,
			"max":[
				4.356694221496582,
				2.609849452972412,
				9.326826095581055
			],
			"min":[
				-3.3031792640686035,
				-2.932986259460449,
				-9.325687408447266
			],
			"type":"VEC3"
		},
		{
			"bufferView":1,
			"componentType":5126,
			"count":47442,
			"type":"VEC3"
		},
		{
			"bufferView":2,
			"componentType":5123,
			"count":56295,
			"type":"SCALAR"
		}
	],
	"bufferViews":[
		{
			"buffer":0,
			"byteLength":569304,
			"byteOffset":0,
			"target":34962
		},
		{
			"buffer":0,
			"byteLength":569304,
			"byteOffset":569304,
			"target":34962
		},
		{
			"buffer":0,
			"byteLength":112590,
			"byteOffset":1138608,
			"target":34963
		}
	],
	"buffers":[
		{
			"byteLength":1251200,
			"uri":"sofa.bin"
		}
	]
}
