{
	"asset":{
		"generator":"Khronos glTF Blender I/O v4.0.43",
		"version":"2.0"
	},
	"extensionsUsed":[
		"KHR_materials_specular",
		"KHR_materials_ior"
	],
	"scene":0,
	"scenes":[
		{
			"name":"Scene",
			"nodes":[
				0
			]
		}
	],
	"nodes":[
		{
			"mesh":0,
			"name":"Speaker.002"
		}
	],
	"materials":[
		{
			"doubleSided":true,
			"extensions":{
				"KHR_materials_specular":{
					"specularFactor":0
				},
				"KHR_materials_ior":{
					"ior":1.4500000476837158
				}
			},
			"name":"default.001",
			"pbrMetallicRoughness":{
				"metallicFactor":0
			}
		}
	],
	"meshes":[
		{
			"name":"Kugel.002",
			"primitives":[
				{
					"attributes":{
						"POSITION":0,
						"NORMAL":1,
						"TEXCOORD_0":2
					},
					"indices":3,
					"material":0
				}
			]
		}
	],
	"accessors":[
		{
			"bufferView":0,
			"componentType":5126,
			"count":2351,
			"max":[
				0.7542135119438171,
				2.653468370437622,
				0.864501953125
			],
			"min":[
				-0.7542135119438171,
				-5.148257732391357,
				-1.2364654541015625
			],
			"type":"VEC3"
		},
		{
			"bufferView":1,
			"componentType":5126,
			"count":2351,
			"type":"VEC3"
		},
		{
			"bufferView":2,
			"componentType":5126,
			"count":2351,
			"type":"VEC2"
		},
		{
			"bufferView":3,
			"componentType":5123,
			"count":4536,
			"type":"SCALAR"
		}
	],
	"bufferViews":[
		{
			"buffer":0,
			"byteLength":28212,
			"byteOffset":0,
			"target":34962
		},
		{
			"buffer":0,
			"byteLength":28212,
			"byteOffset":28212,
			"target":34962
		},
		{
			"buffer":0,
			"byteLength":18808,
			"byteOffset":56424,
			"target":34962
		},
		{
			"buffer":0,
			"byteLength":9072,
			"byteOffset":75232,
			"target":34963
		}
	],
	"buffers":[
		{
			"byteLength":84304,
			"uri":"speaker.bin"
		}
	]
}
