{
	"asset":{
		"generator":"Khronos glTF Blender I/O v4.0.43",
		"version":"2.0"
	},
	"extensionsUsed":[
		"KHR_materials_specular",
		"KHR_materials_ior"
	],
	"scene":0,
	"scenes":[
		{
			"name":"Scene",
			"nodes":[
				0
			]
		}
	],
	"nodes":[
		{
			"mesh":0,
			"name":"Table"
		}
	],
	"materials":[
		{
			"doubleSided":true,
			"extensions":{
				"KHR_materials_specular":{
					"specularFactor":0
				},
				"KHR_materials_ior":{
					"ior":1.4500000476837158
				}
			},
			"name":"default.002",
			"pbrMetallicRoughness":{
				"metallicFactor":0
			}
		}
	],
	"meshes":[
		{
			"name":"\u043d\u043e\u0436\u043a\u0438",
			"primitives":[
				{
					"attributes":{
						"POSITION":0,
						"NORMAL":1,
						"TEXCOORD_0":2
					},
					"indices":3,
					"material":0
				}
			]
		}
	],
	"accessors":[
		{
			"bufferView":0,
			"componentType":5126,
			"count":23227,
			"max":[
				3.42645001411438,
				1.1571955680847168,
				4.9869608879089355
			],
			"min":[
				-3.4979827404022217,
				-1.5326043367385864,
				-4.975108623504639
			],
			"type":"VEC3"
		},
		{
			"bufferView":1,
			"componentType":5126,
			"count":23227,
			"type":"VEC3"
		},
		{
			"bufferView":2,
			"componentType":5126,
			"count":23227,
			"type":"VEC2"
		},
		{
			"bufferView":3,
			"componentType":5123,
			"count":29604,
			"type":"SCALAR"
		}
	],
	"bufferViews":[
		{
			"buffer":0,
			"byteLength":278724,
			"byteOffset":0,
			"target":34962
		},
		{
			"buffer":0,
			"byteLength":278724,
			"byteOffset":278724,
			"target":34962
		},
		{
			"buffer":0,
			"byteLength":185816,
			"byteOffset":557448,
			"target":34962
		},
		{
			"buffer":0,
			"byteLength":59208,
			"byteOffset":743264,
			"target":34963
		}
	],
	"buffers":[
		{
			"byteLength":802472,
			"uri":"table.bin"
		}
	]
}
