{
	"asset":{
		"generator":"Khronos glTF Blender I/O v4.0.43",
		"version":"2.0"
	},
	"extensionsUsed":[
		"KHR_materials_specular",
		"KHR_materials_ior"
	],
	"scene":0,
	"scenes":[
		{
			"name":"Scene",
			"nodes":[
				0
			]
		}
	],
	"nodes":[
		{
			"mesh":0,
			"name":"TV.001"
		}
	],
	"materials":[
		{
			"doubleSided":true,
			"extensions":{
				"KHR_materials_specular":{
					"specularFactor":0
				},
				"KHR_materials_ior":{
					"ior":1.4500000476837158
				}
			},
			"name":"default.001",
			"pbrMetallicRoughness":{
				"metallicFactor":0
			}
		}
	],
	"meshes":[
		{
			"name":"TV.001",
			"primitives":[
				{
					"attributes":{
						"POSITION":0,
						"NORMAL":1,
						"TEXCOORD_0":2
					},
					"indices":3,
					"material":0
				}
			]
		}
	],
	"accessors":[
		{
			"bufferView":0,
			"componentType":5126,
			"count":17998,
			"max":[
				6.281927108764648,
				3.331327438354492,
				0.20501708984375
			],
			"min":[
				-6.246823310852051,
				-3.3756256103515625,
				-0.24784469604492188
			],
			"type":"VEC3"
		},
		{
			"bufferView":1,
			"componentType":5126,
			"count":17998,
			"type":"VEC3"
		},
		{
			"bufferView":2,
			"componentType":5126,
			"count":17998,
			"type":"VEC2"
		},
		{
			"bufferView":3,
			"componentType":5123,
			"count":51456,
			"type":"SCALAR"
		}
	],
	"bufferViews":[
		{
			"buffer":0,
			"byteLength":215976,
			"byteOffset":0,
			"target":34962
		},
		{
			"buffer":0,
			"byteLength":215976,
			"byteOffset":215976,
			"target":34962
		},
		{
			"buffer":0,
			"byteLength":143984,
			"byteOffset":431952,
			"target":34962
		},
		{
			"buffer":0,
			"byteLength":102912,
			"byteOffset":575936,
			"target":34963
		}
	],
	"buffers":[
		{
			"byteLength":678848,
			"uri":"tv.bin"
		}
	]
}
