{
	"asset":{
		"generator":"Khronos glTF Blender I/O v4.0.43",
		"version":"2.0"
	},
	"extensionsUsed":[
		"KHR_materials_specular",
		"KHR_materials_ior"
	],
	"scene":0,
	"scenes":[
		{
			"name":"Scene",
			"nodes":[
				0
			]
		}
	],
	"nodes":[
		{
			"mesh":0,
			"name":"VideoPlayer.001"
		}
	],
	"materials":[
		{
			"doubleSided":true,
			"extensions":{
				"KHR_materials_specular":{
					"specularFactor":0
				},
				"KHR_materials_ior":{
					"ior":1.4500000476837158
				}
			},
			"name":"default.001",
			"pbrMetallicRoughness":{
				"metallicFactor":0
			}
		}
	],
	"meshes":[
		{
			"name":"Kugel_2.001",
			"primitives":[
				{
					"attributes":{
						"POSITION":0,
						"NORMAL":1,
						"TEXCOORD_0":2
					},
					"indices":3,
					"material":0
				}
			]
		}
	],
	"accessors":[
		{
			"bufferView":0,
			"componentType":5126,
			"count":2836,
			"max":[
				3.906839370727539,
				0.7542047500610352,
				0.6420803070068359
			],
			"min":[
				-3.894886016845703,
				-0.7542223930358887,
				-1.4588871002197266
			],
			"type":"VEC3"
		},
		{
			"bufferView":1,
			"componentType":5126,
			"count":2836,
			"type":"VEC3"
		},
		{
			"bufferView":2,
			"componentType":5126,
			"count":2836,
			"type":"VEC2"
		},
		{
			"bufferView":3,
			"componentType":5123,
			"count":6120,
			"type":"SCALAR"
		}
	],
	"bufferViews":[
		{
			"buffer":0,
			"byteLength":34032,
			"byteOffset":0,
			"target":34962
		},
		{
			"buffer":0,
			"byteLength":34032,
			"byteOffset":34032,
			"target":34962
		},
		{
			"buffer":0,
			"byteLength":22688,
			"byteOffset":68064,
			"target":34962
		},
		{
			"buffer":0,
			"byteLength":12240,
			"byteOffset":90752,
			"target":34963
		}
	],
	"buffers":[
		{
			"byteLength":102992,
			"uri":"videoPlayer.bin"
		}
	]
}
