{
    "asset" : {
        "generator" : "Khronos glTF Blender I/O v3.3.32",
        "version" : "2.0"
    },
    "scene" : 0,
    "scenes" : [
        {
            "name" : "Scene",
            "nodes" : [
                0
            ]
        }
    ],
    "nodes" : [
        {
            "mesh" : 0,
            "name" : "\u7403"
        }
    ],
    "materials" : [
        {
            "doubleSided" : true,
            "name" : "\u30de\u30c6\u30ea\u30a2\u30eb",
            "pbrMetallicRoughness" : {
                "metallicRoughnessTexture" : {
                    "index" : 0
                }
            }
        },
        {
            "doubleSided" : true,
            "name" : "Font",
            "pbrMetallicRoughness" : {
                "metallicFactor" : 0,
                "roughnessFactor" : 0
            }
        }
    ],
    "meshes" : [
        {
            "name" : "\u7403",
            "primitives" : [
                {
                    "attributes" : {
                        "POSITION" : 0,
                        "NORMAL" : 1,
                        "TANGENT" : 2,
                        "TEXCOORD_0" : 3,
                        "TEXCOORD_1" : 4
                    },
                    "indices" : 5,
                    "material" : 0
                },
                {
                    "attributes" : {
                        "POSITION" : 6,
                        "NORMAL" : 7,
                        "TANGENT" : 8,
                        "TEXCOORD_0" : 9,
                        "TEXCOORD_1" : 10
                    },
                    "indices" : 11,
                    "material" : 1
                }
            ]
        }
    ],
    "textures" : [
        {
            "sampler" : 0,
            "source" : 0
        }
    ],
    "images" : [
        {
            "mimeType" : "image/png",
            "name" : "Metallic-Roughness",
            "uri" : "Metallic-Roughness.png"
        }
    ],
    "accessors" : [
        {
            "bufferView" : 0,
            "componentType" : 5126,
            "count" : 67639,
            "max" : [
                16,
                1,
                15.999999046325684
            ],
            "min" : [
                -15.999999046325684,
                -1,
                -16
            ],
            "type" : "VEC3"
        },
        {
            "bufferView" : 1,
            "componentType" : 5126,
            "count" : 67639,
            "type" : "VEC3"
        },
        {
            "bufferView" : 2,
            "componentType" : 5126,
            "count" : 67639,
            "type" : "VEC4"
        },
        {
            "bufferView" : 3,
            "componentType" : 5126,
            "count" : 67639,
            "type" : "VEC2"
        },
        {
            "bufferView" : 4,
            "componentType" : 5126,
            "count" : 67639,
            "type" : "VEC2"
        },
        {
            "bufferView" : 5,
            "componentType" : 5125,
            "count" : 348480,
            "type" : "SCALAR"
        },
        {
            "bufferView" : 6,
            "componentType" : 5126,
            "count" : 21335,
            "max" : [
                15.579500198364258,
                0,
                15.309000015258789
            ],
            "min" : [
                -23.226749420166016,
                -0.009999999776482582,
                -19.573001861572266
            ],
            "type" : "VEC3"
        },
        {
            "bufferView" : 7,
            "componentType" : 5126,
            "count" : 21335,
            "type" : "VEC3"
        },
        {
            "bufferView" : 8,
            "componentType" : 5126,
            "count" : 21335,
            "type" : "VEC4"
        },
        {
            "bufferView" : 9,
            "componentType" : 5126,
            "count" : 21335,
            "type" : "VEC2"
        },
        {
            "bufferView" : 10,
            "componentType" : 5126,
            "count" : 21335,
            "type" : "VEC2"
        },
        {
            "bufferView" : 11,
            "componentType" : 5123,
            "count" : 32232,
            "type" : "SCALAR"
        }
    ],
    "bufferViews" : [
        {
            "buffer" : 0,
            "byteLength" : 811668,
            "byteOffset" : 0,
            "target" : 34962
        },
        {
            "buffer" : 0,
            "byteLength" : 811668,
            "byteOffset" : 811668,
            "target" : 34962
        },
        {
            "buffer" : 0,
            "byteLength" : 1082224,
            "byteOffset" : 1623336,
            "target" : 34962
        },
        {
            "buffer" : 0,
            "byteLength" : 541112,
            "byteOffset" : 2705560,
            "target" : 34962
        },
        {
            "buffer" : 0,
            "byteLength" : 541112,
            "byteOffset" : 3246672,
            "target" : 34962
        },
        {
            "buffer" : 0,
            "byteLength" : 1393920,
            "byteOffset" : 3787784,
            "target" : 34963
        },
        {
            "buffer" : 0,
            "byteLength" : 256020,
            "byteOffset" : 5181704,
            "target" : 34962
        },
        {
            "buffer" : 0,
            "byteLength" : 256020,
            "byteOffset" : 5437724,
            "target" : 34962
        },
        {
            "buffer" : 0,
            "byteLength" : 341360,
            "byteOffset" : 5693744,
            "target" : 34962
        },
        {
            "buffer" : 0,
            "byteLength" : 170680,
            "byteOffset" : 6035104,
            "target" : 34962
        },
        {
            "buffer" : 0,
            "byteLength" : 170680,
            "byteOffset" : 6205784,
            "target" : 34962
        },
        {
            "buffer" : 0,
            "byteLength" : 64464,
            "byteOffset" : 6376464,
            "target" : 34963
        }
    ],
    "samplers" : [
        {
            "magFilter" : 9729,
            "minFilter" : 9987
        }
    ],
    "buffers" : [
        {
            "byteLength" : 6440928,
            "uri" : "pbr.bin"
        }
    ]
}
