{
	"asset":{
		"generator":"Khronos glTF Blender I/O v4.0.43",
		"version":"2.0"
	},
	"scene":0,
	"scenes":[
		{
			"name":"Scene",
			"nodes":[
				1
			]
		}
	],
	"nodes":[
		{
			"mesh":0,
			"name":"Aset_interior__M_wjglaj3s_00_lod0"
		},
		{
			"children":[
				0
			],
			"name":"world_root",
			"rotation":[
				0.7071068286895752,
				0,
				0,
				0.7071068286895752
			],
			"scale":[
				0.009999999776482582,
				0.009999999776482582,
				0.009999999776482582
			]
		}
	],
	"materials":[
		{
			"doubleSided":true,
			"name":"default_material",
			"normalTexture":{
				"index":0
			},
			"pbrMetallicRoughness":{
				"baseColorTexture":{
					"index":1
				},
				"metallicFactor":0,
				"metallicRoughnessTexture":{
					"index":2
				}
			}
		}
	],
	"meshes":[
		{
			"name":"Aset_interior__M_wjglaj3s_00_lod0",
			"primitives":[
				{
					"attributes":{
						"POSITION":0,
						"NORMAL":1,
						"TEXCOORD_0":2
					},
					"indices":3,
					"material":0
				}
			]
		}
	],
	"textures":[
		{
			"sampler":0,
			"source":0
		},
		{
			"sampler":0,
			"source":1
		},
		{
			"sampler":0,
			"source":2
		}
	],
	"images":[
		{
			"mimeType":"image/jpeg",
			"name":"wjglaj3s_2K_Normal_LOD0",
			"uri":"wjglaj3s_2K_Normal_LOD0.jpg"
		},
		{
			"mimeType":"image/jpeg",
			"name":"wjglaj3s_2K_Albedo",
			"uri":"wjglaj3s_2K_Albedo.jpg"
		},
		{
			"mimeType":"image/png",
			"name":"wjglaj3s_2K_Roughness",
			"uri":"wjglaj3s_2K_Roughness.png"
		}
	],
	"accessors":[
		{
			"bufferView":0,
			"componentType":5126,
			"count":9589,
			"max":[
				23.520875930786133,
				27.495712280273438,
				0.4059804677963257
			],
			"min":[
				-24.473243713378906,
				-27.597469329833984,
				-107.9103775024414
			],
			"type":"VEC3"
		},
		{
			"bufferView":1,
			"componentType":5126,
			"count":9589,
			"type":"VEC3"
		},
		{
			"bufferView":2,
			"componentType":5126,
			"count":9589,
			"type":"VEC2"
		},
		{
			"bufferView":3,
			"componentType":5123,
			"count":51330,
			"type":"SCALAR"
		}
	],
	"bufferViews":[
		{
			"buffer":0,
			"byteLength":115068,
			"byteOffset":0,
			"target":34962
		},
		{
			"buffer":0,
			"byteLength":115068,
			"byteOffset":115068,
			"target":34962
		},
		{
			"buffer":0,
			"byteLength":76712,
			"byteOffset":230136,
			"target":34962
		},
		{
			"buffer":0,
			"byteLength":102660,
			"byteOffset":306848,
			"target":34963
		}
	],
	"samplers":[
		{
			"magFilter":9729,
			"minFilter":9987
		}
	],
	"buffers":[
		{
			"byteLength":409508,
			"uri":"Chair.bin"
		}
	]
}
