{
	"asset":{
		"generator":"Khronos glTF Blender I/O v4.0.43",
		"version":"2.0"
	},
	"extensionsUsed":[
		"KHR_materials_specular",
		"KHR_materials_ior"
	],
	"scene":0,
	"scenes":[
		{
			"name":"Scene",
			"nodes":[
				0,
				1,
				2,
				3
			]
		}
	],
	"nodes":[
		{
			"mesh":0,
			"name":"ROOF",
			"scale":[
				0.009999999776482582,
				0.009999999776482582,
				0.009999999776482582
			]
		},
		{
			"mesh":1,
			"name":"FIRST_FLOOR",
			"scale":[
				0.009999999776482582,
				0.009999999776482582,
				0.009999999776482582
			]
		},
		{
			"mesh":2,
			"name":"SECOND_FLOOR",
			"scale":[
				0.009999999776482582,
				0.009999999776482582,
				0.009999999776482582
			]
		},
		{
			"mesh":3,
			"name":"WINDOW",
			"scale":[
				0.009999999776482582,
				0.009999999776482582,
				0.009999999776482582
			]
		}
	],
	"materials":[
		{
			"doubleSided":true,
			"extensions":{
				"KHR_materials_specular":{
					"specularColorFactor":[
						2.0,
						2.0,
						2.0
					]
				},
				"KHR_materials_ior":{
					"ior":1.4500000476837158
				}
			},
			"name":"Material #5",
			"normalTexture":{
				"index":0
			},
			"pbrMetallicRoughness":{
				"baseColorTexture":{
					"index":1
				},
				"metallicRoughnessTexture":{
					"index":2
				}
			}
		},
		{
			"doubleSided":true,
			"extensions":{
				"KHR_materials_specular":{
					"specularColorFactor":[
						2.0,
						2.0,
						2.0
					]
				},
				"KHR_materials_ior":{
					"ior":1.4500000476837158
				}
			},
			"name":"Material #3",
			"normalTexture":{
				"index":3
			},
			"pbrMetallicRoughness":{
				"baseColorTexture":{
					"index":4
				},
				"metallicRoughnessTexture":{
					"index":5
				}
			}
		},
		{
			"doubleSided":true,
			"extensions":{
				"KHR_materials_specular":{
					"specularColorFactor":[
						2.0,
						2.0,
						2.0
					]
				},
				"KHR_materials_ior":{
					"ior":1.4500000476837158
				}
			},
			"name":"Material #4",
			"normalTexture":{
				"index":6
			},
			"pbrMetallicRoughness":{
				"baseColorTexture":{
					"index":7
				},
				"metallicRoughnessTexture":{
					"index":8
				}
			}
		},
		{
			"doubleSided":true,
			"extensions":{
				"KHR_materials_specular":{
					"specularColorFactor":[
						2.0,
						2.0,
						2.0
					]
				},
				"KHR_materials_ior":{
					"ior":1.4500000476837158
				}
			},
			"name":"Material #2",
			"pbrMetallicRoughness":{
				"baseColorFactor":[
					0,
					0,
					0,
					0.472156822681427
				],
				"metallicFactor":0,
				"roughnessFactor":0.5527864098548889
			}
		}
	],
	"meshes":[
		{
			"name":"\u30e1\u30c3\u30b7\u30e5",
			"primitives":[
				{
					"attributes":{
						"POSITION":0,
						"NORMAL":1,
						"TEXCOORD_0":2
					},
					"indices":3,
					"material":0
				}
			]
		},
		{
			"name":"\u30e1\u30c3\u30b7\u30e5.001",
			"primitives":[
				{
					"attributes":{
						"POSITION":4,
						"NORMAL":5,
						"TEXCOORD_0":6
					},
					"indices":7,
					"material":1
				}
			]
		},
		{
			"name":"\u30e1\u30c3\u30b7\u30e5.002",
			"primitives":[
				{
					"attributes":{
						"POSITION":8,
						"NORMAL":9,
						"TEXCOORD_0":10
					},
					"indices":11,
					"material":2
				}
			]
		},
		{
			"name":"\u30e1\u30c3\u30b7\u30e5.003",
			"primitives":[
				{
					"attributes":{
						"POSITION":12,
						"NORMAL":13,
						"TEXCOORD_0":14
					},
					"indices":15,
					"material":3
				}
			]
		}
	],
	"textures":[
		{
			"sampler":0,
			"source":0
		},
		{
			"sampler":0,
			"source":1
		},
		{
			"sampler":0,
			"source":2
		},
		{
			"sampler":0,
			"source":3
		},
		{
			"sampler":0,
			"source":4
		},
		{
			"sampler":0,
			"source":5
		},
		{
			"sampler":0,
			"source":6
		},
		{
			"sampler":0,
			"source":7
		},
		{
			"sampler":0,
			"source":8
		}
	],
	"images":[
		{
			"mimeType":"image/png",
			"name":"ROOF_Normal",
			"uri":"ROOF_Normal.png"
		},
		{
			"mimeType":"image/png",
			"name":"ROOF_BaseColor",
			"uri":"ROOF_BaseColor.png"
		},
		{
			"mimeType":"image/png",
			"name":"ROOF_OcclusionRoughnessMetallic",
			"uri":"ROOF_OcclusionRoughnessMetallic.png"
		},
		{
			"mimeType":"image/png",
			"name":"FIRST_FLOOR_Normal",
			"uri":"FIRST_FLOOR_Normal.png"
		},
		{
			"mimeType":"image/png",
			"name":"FIRST_FLOOR_BaseColor",
			"uri":"FIRST_FLOOR_BaseColor.png"
		},
		{
			"mimeType":"image/png",
			"name":"FIRST_FLOOR_OcclusionRoughnessMetallic",
			"uri":"FIRST_FLOOR_OcclusionRoughnessMetallic.png"
		},
		{
			"mimeType":"image/png",
			"name":"SECOND_FLOOR_Normal",
			"uri":"SECOND_FLOOR_Normal.png"
		},
		{
			"mimeType":"image/png",
			"name":"SECOND_FLOOR_BaseColor",
			"uri":"SECOND_FLOOR_BaseColor.png"
		},
		{
			"mimeType":"image/png",
			"name":"SECOND_FLOOR_OcclusionRoughnessMetallic",
			"uri":"SECOND_FLOOR_OcclusionRoughnessMetallic.png"
		}
	],
	"accessors":[
		{
			"bufferView":0,
			"componentType":5126,
			"count":1088,
			"max":[
				493.920654296875,
				824.98388671875,
				621.051025390625
			],
			"min":[
				-493.92041015625,
				345.9798583984375,
				-621.0517578125
			],
			"type":"VEC3"
		},
		{
			"bufferView":1,
			"componentType":5126,
			"count":1088,
			"type":"VEC3"
		},
		{
			"bufferView":2,
			"componentType":5126,
			"count":1088,
			"type":"VEC2"
		},
		{
			"bufferView":3,
			"componentType":5123,
			"count":2016,
			"type":"SCALAR"
		},
		{
			"bufferView":4,
			"componentType":5126,
			"count":6792,
			"max":[
				414.71844482421875,
				312.3615417480469,
				513.55126953125
			],
			"min":[
				-391.234130859375,
				-3.0517578125e-05,
				-499.2647705078125
			],
			"type":"VEC3"
		},
		{
			"bufferView":5,
			"componentType":5126,
			"count":6792,
			"type":"VEC3"
		},
		{
			"bufferView":6,
			"componentType":5126,
			"count":6792,
			"type":"VEC2"
		},
		{
			"bufferView":7,
			"componentType":5123,
			"count":14475,
			"type":"SCALAR"
		},
		{
			"bufferView":8,
			"componentType":5126,
			"count":1056,
			"max":[
				381.818115234375,
				723.47265625,
				569.9514770507812
			],
			"min":[
				-446.63629150390625,
				55.555511474609375,
				-508.94970703125
			],
			"type":"VEC3"
		},
		{
			"bufferView":9,
			"componentType":5126,
			"count":1056,
			"type":"VEC3"
		},
		{
			"bufferView":10,
			"componentType":5126,
			"count":1056,
			"type":"VEC2"
		},
		{
			"bufferView":11,
			"componentType":5123,
			"count":1968,
			"type":"SCALAR"
		},
		{
			"bufferView":12,
			"componentType":5126,
			"count":1612,
			"max":[
				404.818603515625,
				538.4404907226562,
				564.7401733398438
			],
			"min":[
				-441.556396484375,
				148.66607666015625,
				-479.9485778808594
			],
			"type":"VEC3"
		},
		{
			"bufferView":13,
			"componentType":5126,
			"count":1612,
			"type":"VEC3"
		},
		{
			"bufferView":14,
			"componentType":5126,
			"count":1612,
			"type":"VEC2"
		},
		{
			"bufferView":15,
			"componentType":5123,
			"count":2652,
			"type":"SCALAR"
		}
	],
	"bufferViews":[
		{
			"buffer":0,
			"byteLength":13056,
			"byteOffset":0,
			"target":34962
		},
		{
			"buffer":0,
			"byteLength":13056,
			"byteOffset":13056,
			"target":34962
		},
		{
			"buffer":0,
			"byteLength":8704,
			"byteOffset":26112,
			"target":34962
		},
		{
			"buffer":0,
			"byteLength":4032,
			"byteOffset":34816,
			"target":34963
		},
		{
			"buffer":0,
			"byteLength":81504,
			"byteOffset":38848,
			"target":34962
		},
		{
			"buffer":0,
			"byteLength":81504,
			"byteOffset":120352,
			"target":34962
		},
		{
			"buffer":0,
			"byteLength":54336,
			"byteOffset":201856,
			"target":34962
		},
		{
			"buffer":0,
			"byteLength":28950,
			"byteOffset":256192,
			"target":34963
		},
		{
			"buffer":0,
			"byteLength":12672,
			"byteOffset":285144,
			"target":34962
		},
		{
			"buffer":0,
			"byteLength":12672,
			"byteOffset":297816,
			"target":34962
		},
		{
			"buffer":0,
			"byteLength":8448,
			"byteOffset":310488,
			"target":34962
		},
		{
			"buffer":0,
			"byteLength":3936,
			"byteOffset":318936,
			"target":34963
		},
		{
			"buffer":0,
			"byteLength":19344,
			"byteOffset":322872,
			"target":34962
		},
		{
			"buffer":0,
			"byteLength":19344,
			"byteOffset":342216,
			"target":34962
		},
		{
			"buffer":0,
			"byteLength":12896,
			"byteOffset":361560,
			"target":34962
		},
		{
			"buffer":0,
			"byteLength":5304,
			"byteOffset":374456,
			"target":34963
		}
	],
	"samplers":[
		{
			"magFilter":9729,
			"minFilter":9987
		}
	],
	"buffers":[
		{
			"byteLength":379760,
			"uri":"House.bin"
		}
	]
}
