{
	"asset":{
		"generator":"Khronos glTF Blender I/O v4.0.43",
		"version":"2.0"
	},
	"extensionsUsed":[
		"KHR_materials_specular",
		"KHR_materials_ior"
	],
	"scene":0,
	"scenes":[
		{
			"name":"Scene",
			"nodes":[
				0,
				1,
				2
			]
		}
	],
	"nodes":[
		{
			"mesh":0,
			"name":"ROOF",
			"scale":[
				0.009999999776482582,
				0.009999999776482582,
				0.009999999776482582
			]
		},
		{
			"mesh":1,
			"name":"FIRST_FLOOR",
			"scale":[
				0.009999999776482582,
				0.009999999776482582,
				0.009999999776482582
			]
		},
		{
			"mesh":2,
			"name":"SECOND_FLOOR",
			"scale":[
				0.009999999776482582,
				0.009999999776482582,
				0.009999999776482582
			]
		}
	],
	"materials":[
		{
			"doubleSided":true,
			"extensions":{
				"KHR_materials_specular":{
					"specularColorFactor":[
						2.0,
						2.0,
						2.0
					]
				},
				"KHR_materials_ior":{
					"ior":1.4500000476837158
				}
			},
			"name":"Material #5",
			"normalTexture":{
				"index":0
			},
			"pbrMetallicRoughness":{
				"baseColorTexture":{
					"index":1
				},
				"metallicRoughnessTexture":{
					"index":2
				}
			}
		},
		{
			"doubleSided":true,
			"extensions":{
				"KHR_materials_specular":{
					"specularColorFactor":[
						2.0,
						2.0,
						2.0
					]
				},
				"KHR_materials_ior":{
					"ior":1.4500000476837158
				}
			},
			"name":"Material #3",
			"normalTexture":{
				"index":3
			},
			"pbrMetallicRoughness":{
				"baseColorTexture":{
					"index":4
				},
				"metallicRoughnessTexture":{
					"index":5
				}
			}
		},
		{
			"doubleSided":true,
			"extensions":{
				"KHR_materials_specular":{
					"specularColorFactor":[
						2.0,
						2.0,
						2.0
					]
				},
				"KHR_materials_ior":{
					"ior":1.4500000476837158
				}
			},
			"name":"Material #4",
			"normalTexture":{
				"index":6
			},
			"pbrMetallicRoughness":{
				"baseColorTexture":{
					"index":7
				},
				"metallicRoughnessTexture":{
					"index":8
				}
			}
		}
	],
	"meshes":[
		{
			"name":"\u30e1\u30c3\u30b7\u30e5",
			"primitives":[
				{
					"attributes":{
						"POSITION":0,
						"NORMAL":1,
						"TEXCOORD_0":2
					},
					"indices":3,
					"material":0
				}
			]
		},
		{
			"name":"\u30e1\u30c3\u30b7\u30e5.001",
			"primitives":[
				{
					"attributes":{
						"POSITION":4,
						"NORMAL":5,
						"TEXCOORD_0":6
					},
					"indices":7,
					"material":1
				}
			]
		},
		{
			"name":"\u30e1\u30c3\u30b7\u30e5.002",
			"primitives":[
				{
					"attributes":{
						"POSITION":8,
						"NORMAL":9,
						"TEXCOORD_0":10
					},
					"indices":11,
					"material":2
				}
			]
		}
	],
	"textures":[
		{
			"sampler":0,
			"source":0
		},
		{
			"sampler":0,
			"source":1
		},
		{
			"sampler":0,
			"source":2
		},
		{
			"sampler":0,
			"source":3
		},
		{
			"sampler":0,
			"source":4
		},
		{
			"sampler":0,
			"source":5
		},
		{
			"sampler":0,
			"source":6
		},
		{
			"sampler":0,
			"source":7
		},
		{
			"sampler":0,
			"source":8
		}
	],
	"images":[
		{
			"mimeType":"image/png",
			"name":"ROOF_Normal",
			"uri":"ROOF_Normal.png"
		},
		{
			"mimeType":"image/png",
			"name":"ROOF_BaseColor",
			"uri":"ROOF_BaseColor.png"
		},
		{
			"mimeType":"image/png",
			"name":"ROOF_OcclusionRoughnessMetallic",
			"uri":"ROOF_OcclusionRoughnessMetallic.png"
		},
		{
			"mimeType":"image/png",
			"name":"FIRST_FLOOR_Normal",
			"uri":"FIRST_FLOOR_Normal.png"
		},
		{
			"mimeType":"image/png",
			"name":"FIRST_FLOOR_BaseColor",
			"uri":"FIRST_FLOOR_BaseColor.png"
		},
		{
			"mimeType":"image/png",
			"name":"FIRST_FLOOR_OcclusionRoughnessMetallic",
			"uri":"FIRST_FLOOR_OcclusionRoughnessMetallic.png"
		},
		{
			"mimeType":"image/png",
			"name":"SECOND_FLOOR_Normal",
			"uri":"SECOND_FLOOR_Normal.png"
		},
		{
			"mimeType":"image/png",
			"name":"SECOND_FLOOR_BaseColor",
			"uri":"SECOND_FLOOR_BaseColor.png"
		},
		{
			"mimeType":"image/png",
			"name":"SECOND_FLOOR_OcclusionRoughnessMetallic",
			"uri":"SECOND_FLOOR_OcclusionRoughnessMetallic.png"
		}
	],
	"accessors":[
		{
			"bufferView":0,
			"componentType":5126,
			"count":1094,
			"max":[
				493.920654296875,
				824.98388671875,
				621.051025390625
			],
			"min":[
				-493.92041015625,
				345.9798583984375,
				-621.0517578125
			],
			"type":"VEC3"
		},
		{
			"bufferView":1,
			"componentType":5126,
			"count":1094,
			"type":"VEC3"
		},
		{
			"bufferView":2,
			"componentType":5126,
			"count":1094,
			"type":"VEC2"
		},
		{
			"bufferView":3,
			"componentType":5123,
			"count":2016,
			"type":"SCALAR"
		},
		{
			"bufferView":4,
			"componentType":5126,
			"count":6931,
			"max":[
				414.71844482421875,
				312.3615417480469,
				513.55126953125
			],
			"min":[
				-391.234130859375,
				-3.0517578125e-05,
				-499.2647705078125
			],
			"type":"VEC3"
		},
		{
			"bufferView":5,
			"componentType":5126,
			"count":6931,
			"type":"VEC3"
		},
		{
			"bufferView":6,
			"componentType":5126,
			"count":6931,
			"type":"VEC2"
		},
		{
			"bufferView":7,
			"componentType":5123,
			"count":14475,
			"type":"SCALAR"
		},
		{
			"bufferView":8,
			"componentType":5126,
			"count":1083,
			"max":[
				381.818115234375,
				723.47265625,
				569.9514770507812
			],
			"min":[
				-446.63629150390625,
				55.555511474609375,
				-508.94970703125
			],
			"type":"VEC3"
		},
		{
			"bufferView":9,
			"componentType":5126,
			"count":1083,
			"type":"VEC3"
		},
		{
			"bufferView":10,
			"componentType":5126,
			"count":1083,
			"type":"VEC2"
		},
		{
			"bufferView":11,
			"componentType":5123,
			"count":1968,
			"type":"SCALAR"
		}
	],
	"bufferViews":[
		{
			"buffer":0,
			"byteLength":13128,
			"byteOffset":0,
			"target":34962
		},
		{
			"buffer":0,
			"byteLength":13128,
			"byteOffset":13128,
			"target":34962
		},
		{
			"buffer":0,
			"byteLength":8752,
			"byteOffset":26256,
			"target":34962
		},
		{
			"buffer":0,
			"byteLength":4032,
			"byteOffset":35008,
			"target":34963
		},
		{
			"buffer":0,
			"byteLength":83172,
			"byteOffset":39040,
			"target":34962
		},
		{
			"buffer":0,
			"byteLength":83172,
			"byteOffset":122212,
			"target":34962
		},
		{
			"buffer":0,
			"byteLength":55448,
			"byteOffset":205384,
			"target":34962
		},
		{
			"buffer":0,
			"byteLength":28950,
			"byteOffset":260832,
			"target":34963
		},
		{
			"buffer":0,
			"byteLength":12996,
			"byteOffset":289784,
			"target":34962
		},
		{
			"buffer":0,
			"byteLength":12996,
			"byteOffset":302780,
			"target":34962
		},
		{
			"buffer":0,
			"byteLength":8664,
			"byteOffset":315776,
			"target":34962
		},
		{
			"buffer":0,
			"byteLength":3936,
			"byteOffset":324440,
			"target":34963
		}
	],
	"samplers":[
		{
			"magFilter":9729,
			"minFilter":9987
		}
	],
	"buffers":[
		{
			"byteLength":328376,
			"uri":"House_NoWindow.bin"
		}
	]
}
